<?xml version="1.0" encoding="utf-8"?>
<!-- Generator: Adobe Illustrator 17.1.0, SVG Export Plug-In . SVG Version: 6.00 Build 0)  -->
<!DOCTYPE svg PUBLIC "-//W3C//DTD SVG 1.1//EN" "http://www.w3.org/Graphics/SVG/1.1/DTD/svg11.dtd">
<svg version="1.1" xmlns="http://www.w3.org/2000/svg" xmlns:xlink="http://www.w3.org/1999/xlink" x="0px" y="0px"
	 viewBox="0 0 60 60" enable-background="new 0 0 60 60" xml:space="preserve">
<g id="Layer_1">
	<circle fill="#65BEDB" cx="29.7" cy="29.5" r="29.4"/>
	<path fill="#FFFFFF" d="M12.6,14.2H7.8L2.9,32.4H7l2-7.1l-0.2,0.9c2.7,0.2,8.7,0.3,9.6-6.4C19.1,13.4,12.6,14.2,12.6,14.2
		L12.6,14.2L12.6,14.2z M13.1,21.8c-1.4,1.3-3.3,0.8-3.3,0.8l0.5-2l0.7-2.7c0.3,0,2.3-0.2,2.8,0.2C14.4,18.6,14,20.9,13.1,21.8
		L13.1,21.8L13.1,21.8z M30.5,15.6c-0.3-0.5-0.8-0.9-1.4-1.1c-3.5-1.1-6.3,1.5-8.3,4.1c-1.9,2.7-3.2,5.7-3.2,9.3
		c0.1,2,0.6,4.2,2.6,5c3.3,0.8,5.8-2,7.5-4.3c0.2-0.3,0.5-0.6,0.5-1c-0.1-0.1-0.3-0.2-0.4-0.2c-0.4,0.6-0.8,1.1-1.2,1.6
		c-1.2,1.1-2.6,2-4.3,1.6c-1.8-0.8-1.9-3-1.8-4.8c0.2-0.7,0.2-1.5,0.5-2.1l1.3-0.4c2.8-0.9,6-1.1,7.8-3.9
		C30.7,18.3,31.2,16.7,30.5,15.6L30.5,15.6L30.5,15.6z M24.4,21.7c-3.8,1.2-2.8,0.7-2.8,0.7s2.8-8.6,5.8-7.6
		C30.3,15.9,28.1,20.5,24.4,21.7C24.4,21.7,24.4,21.7,24.4,21.7z M32.6,14.3l12-0.1l-1.1,3.9l-3.9,0.1l-4,14.2h-4.4l3.9-14.2h-3.6
		C31.5,18.1,32.6,14.3,32.6,14.3z M48.1,14.2l-8.7,18.1h4.5l1.4-3h4.1v3l4,0V14.2L48.1,14.2L48.1,14.2z M46.9,25.8l2.4-5.2l0-0.1
		v5.3H46.9L46.9,25.8z"/>
	<path fill="#FFFFFF" d="M47,50.4c0,0-0.6-0.9-6.9-2.3c0,0,2.2-1.3,1.9-4.6c0,0,3.1,0.4,2.8-1.3c0,0-1.3-3.3-4.2-3.5
		c0,0-2.5-4.6-4.7-4.2c0,0-0.7,0.5,3.1,5.3c0,0-0.8,0.5-1.2,1.7c0,0-7.9-2.2-14.3-0.8c0,0-1.7-1.7-2.8,0.4c0,0-0.7,1.6,1.1,2.4
		c0,0-0.4,0.8-0.6,2.6c0,0-1.2,0.3-2.3,1.7c0,0-1.7-0.4-2.3-0.3c0,0-1.8,1.2-3.5,4.3c0,0,0.1,0.9,0.6,0.8c0,0,0.3,0.6,3.3-2.8
		c0,0,1.4,0.1,2.2-0.3c0,0,13-2.6,20.3,1.2c0,0,4.6,0.2,6.2,1.1C45.6,51.9,47.6,52.5,47,50.4L47,50.4z M41.8,40.6
		c0.3,0,0.5,0.2,0.5,0.5c0,0.3-0.2,0.5-0.5,0.5s-0.5-0.2-0.5-0.5C41.3,40.8,41.5,40.6,41.8,40.6z"/>
</g>
<g id="Layer_2" display="none">
	<circle display="inline" fill="#65BEDB" cx="29.7" cy="29.5" r="29.4"/>
	<path display="inline" fill="#FFFFFF" d="M55.1,37.7c0,0-0.8-1.3-10.3-3.4c0,0,3.3-1.9,2.8-6.8c0,0,4.6,0.6,4.2-1.9
		c0,0-1.9-4.9-6.3-5.1c0,0-3.7-6.9-7-6.2c0,0-1.1,0.8,4.6,7.8c0,0-1.2,0.8-1.8,2.5c0,0-11.7-3.2-21.1-1.1c0,0-2.4-2.6-4.2,0.6
		c0,0-1,2.4,1.6,3.5c0,0-0.5,1.1-0.9,3.8c0,0-1.8,0.4-3.4,2.5c0,0-2.5-0.6-3.4-0.4c0,0-2.6,1.8-5.2,6.4c0,0,0.1,1.3,0.9,1.2
		c0,0,0.4,0.9,4.9-4.1c0,0,2.1,0.2,3.3-0.4c0,0,19.3-3.9,30.1,1.8c0,0,6.8,0.2,9.3,1.7C53.1,39.9,56.1,40.7,55.1,37.7L55.1,37.7z
		 M47.3,23.1c0.4,0,0.7,0.3,0.7,0.7c0,0.4-0.3,0.7-0.7,0.7c-0.4,0-0.7-0.3-0.7-0.7C46.7,23.4,47,23.1,47.3,23.1z"/>
</g>
</svg>
